<svg xmlns="http://www.w3.org/2000/svg" width="128" height="128" viewBox="0 0 128 128">
  <g id="ellipse" fill="none">
    <path d="M64,0A64,64,0,1,1,0,64,64.148,64.148,0,0,1,64,0Z" stroke="none"/>
    <path d="M 64 1 C 55.49461364746094 1 47.24418640136719 2.665565490722656 39.47786712646484 5.950447082519531 C 35.74506378173828 7.529281616210938 32.14471435546875 9.483497619628906 28.77680206298828 11.75881958007813 C 25.44063568115234 14.01270294189453 22.30339813232422 16.60115051269531 19.45228576660156 19.45228576660156 C 16.60115051269531 22.30339813232422 14.01270294189453 25.44063568115234 11.75881958007813 28.77680206298828 C 9.483497619628906 32.14471435546875 7.529281616210938 35.74506378173828 5.950447082519531 39.47786712646484 C 2.665565490722656 47.24418640136719 1 55.49461364746094 1 64 C 1 72.50538635253906 2.665565490722656 80.75581359863281 5.950447082519531 88.52213287353516 C 7.529281616210938 92.25492858886719 9.483497619628906 95.85528564453125 11.75881958007813 99.22319793701172 C 14.01270294189453 102.5593643188477 16.60115051269531 105.6966018676758 19.45228576660156 108.5477142333984 C 22.30339813232422 111.3988494873047 25.44063568115234 113.9872970581055 28.77680206298828 116.2411804199219 C 32.14471435546875 118.5165023803711 35.74506378173828 120.4707183837891 39.47786712646484 122.0495529174805 C 47.24418640136719 125.3344345092773 55.49461364746094 127 64 127 C 72.50538635253906 127 80.75581359863281 125.3344345092773 88.52213287353516 122.0495529174805 C 92.25492858886719 120.4707183837891 95.85528564453125 118.5165023803711 99.22319793701172 116.2411804199219 C 102.5593643188477 113.9872970581055 105.6966018676758 111.3988494873047 108.5477142333984 108.5477142333984 C 111.3988494873047 105.6966018676758 113.9872970581055 102.5593643188477 116.2411804199219 99.22319793701172 C 118.5165023803711 95.85528564453125 120.4707183837891 92.25492858886719 122.0495529174805 88.52213287353516 C 125.3344345092773 80.75581359863281 127 72.50538635253906 127 64 C 127 51.44045257568359 123.3195648193359 39.30695343017578 116.3565673828125 28.91123199462891 C 113.0067977905273 23.91004943847656 108.9697647094727 19.42286682128906 104.3575973510742 15.57430267333984 C 99.71784973144531 11.70271301269531 94.57524871826172 8.544166564941406 89.07253265380859 6.186332702636719 C 81.04350280761719 2.74493408203125 72.60787963867188 1 64 1 M 64 0 C 72.94259643554688 0 81.45681762695313 1.834098815917969 89.46648406982422 5.267196655273438 C 112.0109329223633 14.92718505859375 128 37.59636688232422 128 64 C 128 99.34621429443359 99.34621429443359 128 64 128 C 28.65378570556641 128 0 99.34621429443359 0 64 C 0 28.65378570556641 28.65378570556641 0 64 0 Z" stroke="none" fill="#707070"/>
  </g>
</svg>
