<svg xmlns="http://www.w3.org/2000/svg" viewBox="0 0 35.355 35.356"><g fill="#fff"><path d="M 30.40560150146484 34.29494094848633 L 18.20768165588379 22.09702110290527 L 17.6773509979248 21.56669044494629 L 17.14702033996582 22.09702110290527 L 4.949149131774902 34.29489135742188 L 1.060612916946411 30.40564918518066 L 13.25813102722168 18.20813179016113 L 13.78846073150635 17.67780113220215 L 13.25813102722168 17.14747047424316 L 1.06066107749939 4.950001239776611 L 4.950001239776611 1.06066107749939 L 17.14747047424316 13.25813102722168 L 17.67780113220215 13.78846073150635 L 18.20813179016113 13.25813102722168 L 30.40555381774902 1.060709357261658 L 34.29409027099609 4.949953079223633 L 22.09702110290527 17.14702033996582 L 21.56669044494629 17.6773509979248 L 22.09702110290527 18.20768165588379 L 34.29494094848633 30.40560150146484 L 30.40560150146484 34.29494094848633 Z" stroke="none"/><path d="M 30.40560150146484 33.23427963256836 L 33.23427963256836 30.40560150146484 L 21.56669044494629 18.73801040649414 L 20.50603103637695 17.6773509979248 L 21.56669044494629 16.61669158935547 L 33.23347854614258 4.949904918670654 L 30.40550422668457 2.12141752243042 L 18.73846054077148 13.78846073150635 L 17.67780113220215 14.84912109375 L 16.61714172363281 13.78846073150635 L 4.950001239776611 2.121321201324463 L 2.121321201324463 4.950001239776611 L 13.78846073150635 16.61714172363281 L 14.84912109375 17.67780113220215 L 13.78846073150635 18.73846054077148 L 2.121224641799927 30.40569686889648 L 4.949197769165039 33.23418426513672 L 16.61669158935547 21.56669044494629 L 17.6773509979248 20.50603103637695 L 18.73801040649414 21.56669044494629 L 30.40560150146484 33.23427963256836 M 30.40560150146484 35.3556022644043 L 17.6773509979248 22.62735176086426 L 4.949100971221924 35.3556022644043 L 1.132202100961877e-06 30.40560150146484 L 12.72780132293701 17.67780113220215 L 1.132202100961877e-06 4.950001239776611 L 4.950001239776611 1.132202100961877e-06 L 17.67780113220215 12.72780132293701 L 30.40560150146484 1.132202100961877e-06 L 35.35470199584961 4.950001239776611 L 22.62735176086426 17.6773509979248 L 35.3556022644043 30.40560150146484 L 30.40560150146484 35.3556022644043 Z" stroke="none" fill="#313131"/></g></svg>